# xmcd
#
# Track frame offsets: 
#        150
#        13274
#        38729
#        76280
#        97913
#        113993
#        137222
#        166807
#        192756
#        224520
#        259837
#        286979
#
# Disc length: 4222 seconds
#
# Revision: 4
# Processed by: cddbd v1.5.2PL0 Copyright (c) Steve Scherf et al.
# Submitted via: ExactAudioCopy v0.99pb4
#
DISCID=a5107c0c
DTITLE=1 Giant Leap - 1 Giant Leap
DYEAR=2001
DGENRE=Crossover
TTITLE0=Dunya Salam (featuring Baaba Maal)
TTITLE1=My Culture (featuring Robbie Williams and Maxi Jazz)
TTITLE2=The Way You Dream (featuring Michael Stipe and Asha Bhosle)
TTITLE3=Ma' Africa (featuring The Mahotella Queens and Ulali)
TTITLE4=Braided Hair (featuring Speech and Neneh Cherry)
TTITLE5=Ta Moko (featuring Whiri Mako Black)
TTITLE6=Bushes (featuring Baaba Maal)
TTITLE7=Passion (featuring Michael Franti)
TTITLE8=Daphne (featuring Eddi Reader, The Mahotella Queens and Revetti 
TTITLE8=Sakalar)
TTITLE9=All Alone (On Eilean Shona)
TTITLE10=Racing Away (featuring Grant Lee Phillips and Horace Andy)
TTITLE11=Ghosts (featuring Eddi Reader)
EXTD=
EXTT0=
EXTT1=
EXTT2=
EXTT3=
EXTT4=
EXTT5=
EXTT6=
EXTT7=
EXTT8=
EXTT9=
EXTT10=
EXTT11=
PLAYORDER=
